<svg xmlns="http://www.w3.org/2000/svg" width="1280" height="1024" viewBox="0 0 1280 1024">
  <defs>
    <style>
      .cls-1 {
        fill: none;
      }

      .cls-1, .cls-2 {
        stroke: #000;
        stroke-width: 1px;
        fill-rule: evenodd;
      }

      .cls-2 {
        fill: #0e9eaf;
      }
    </style>
  </defs>
  <g id="Artboard_1" data-name="Artboard 1">
    <path class="cls-1" d="M180,599l42-13,41-22,37-21,31-18,43-36,34-35,37-27,27-22,24-12,29-15,29-8,19,1,29,9,26,9,33,18,34,21,23,18,36,21,33,23,52,27,55,25,55,23,54,19,41,10,49,15,62,11,1,117L781,717l-2-65-10-46-18-50-23-39-27-36-32-29-38-26-31-13-34-8-25-1-39,14-26,21-29,24-24,28-22,35-19,32-12,39-6,38-4,45L123,664l1-58,9.78-1.223Z"/>
    <path class="cls-2" d="M363,681l8-86,18-51,37-55,27-30,24-25,48-22,26-8,33,4,18,8,29,10,13,9-37,15-26,21-25,22-18,20-19,25-15,32-9,22-8,27-3,34,3,15-49,11Z"/>
  </g>
</svg>
